<svg version="1.1" baseProfile="basic" id="Layer_1"
   xmlns="http://www.w3.org/2000/svg" xmlns:xlink="http://www.w3.org/1999/xlink" x="0px" y="0px" width="170.475px" preserveAspectRatio="xMidYMin meet"
   height="234.157px" viewBox="0 0 170.475 234.157" xml:space="default">
<path fill="#FFFFFF" d="M25.065,209.974l-12.753-21.158l10.12-26.259l21.547-3.686l11.272,20.574l-8.837,24.861L25.065,209.974
   M45.766,154.036l-25.824,4.176L7.644,189.834l15.477,25.418l25.542-7.019l10.453-29.631L45.766,154.036 M150.952,176.563
  l-7.216-16.422l5.637-19.289l12.272-2.1l6.571,16.047l-5.079,18.529L150.952,176.563 M162.668,135.137l-14.713,2.379l-6.817,23.191
  l8.721,19.722l14.587-4.009l6.029-22.113L162.668,135.137 M126.92,208.913l-8.15-16.855l6.39-21.032l13.861-3.257l7.384,16.49
  l-5.727,20.121L126.92,208.913 M140.174,163.84l-16.611,3.748l-7.747,25.303l9.87,20.236l16.461-5.58l6.79-24.004L140.174,163.84
   M65.279,229.224l-10.822-19.017l8.555-24.58l18.318-4.305l9.658,18.574l-7.546,23.342L65.279,229.224 M82.851,176.775
  l-21.963,4.955l-10.373,29.59l13.11,22.837l21.738-7.365l8.934-27.828L82.851,176.775 M124.528,157.485l-8.233-17.947l6.457-20.287
  l14.006-1.5l7.457,17.48l-5.785,19.455L124.528,157.485 M137.922,113.96l-16.783,1.641l-7.831,24.397l9.975,21.559l16.631-3.506
  l6.859-23.215L137.922,113.96 M62.199,170.038l-10.952-20.469l8.658-23.588l18.533-1.984l9.768,19.873l-7.633,22.469L62.199,170.038
   M79.979,119.625l-22.221,2.174l-10.5,28.386l13.267,24.597l21.993-4.635l9.035-26.793L79.979,119.625 M59.086,110.226
  L48.003,88.267l8.766-22.564l18.751,0.384l9.878,21.188l-7.722,21.584L59.086,110.226 M77.076,61.887l-22.481-0.669l-10.63,27.156
  l13.426,26.391l22.251-1.845l9.141-25.735L77.076,61.887 M55.939,49.78L44.725,26.308l8.873-21.525l18.972,2.8l9.99,22.537
  l-7.811,20.673L55.939,49.78 M74.146,3.569L51.397,0L40.636,25.896L54.224,54.12l22.513,1.004l9.246-24.657L74.146,3.569
   M21.49,145.592L8.574,122.704l10.253-25.072l21.818-0.944l11.407,22.089l-8.945,23.845L21.49,145.592 M42.454,92.05l-26.15,0.888
  L3.845,123.131l15.675,27.516l25.862-3.796l10.581-28.427L42.454,92.05 M94.218,135.596l-9.505-19.77l7.485-21.369l16.117-0.698
  l8.543,19.164l-6.653,20.476L94.218,135.596 M109.662,89.767l-19.329,0.656l-9.068,25.715l11.503,23.758l19.145-2.81l7.876-24.428
  L109.662,89.767 M17.875,80.473L4.792,55.826l10.389-23.867l22.096,1.858l11.547,23.646l-9.058,22.795L17.875,80.473 M39.106,29.394
  l-26.48-2.473L0,55.648l15.878,29.638l26.188-0.501l10.712-27.176L39.106,29.394 M91.477,79.749L81.867,58.69l7.57-20.487
  l16.296,1.37l8.635,20.325l-6.728,19.692L91.477,79.749 M107.095,35.741l-19.543-1.824l-9.173,24.645L90.01,83.869l19.354-0.37
  l7.963-23.49L107.095,35.741"/>
</svg>